<?xml version="1.0" encoding="UTF-8"?><!DOCTYPE svg  PUBLIC '-//W3C//DTD SVG 1//EN'  'http://www.w3.org/Graphics/SVG/1/DTD/svg11.dtd'><svg height="900" width="900" version="1" xmlns="http://www.w3.org/2000/svg"><rect width="900px" height="900px" fill="#fff"/><rect x="270" y="45" width="45" height="45" fill="#e8edf4"/><rect x="315" y="45" width="45" height="45" fill="#f2f5f9"/><rect x="270" y="90" width="45" height="45" fill="#dae0ea"/><rect x="315" y="135" width="45" height="45" fill="#f2f5f9"/><rect x="315" y="180" width="45" height="45" fill="#f2f5f9"/><rect x="360" y="180" width="45" height="45" fill="#f2f5f9"/><rect x="315" y="225" width="45" height="45" fill="#e8edf4"/><rect x="315" y="270" width="45" height="45" fill="#e8edf4"/><rect x="360" y="270" width="45" height="45" fill="#f2f5f9"/><rect x="540" y="270" width="45" height="45" fill="#f2f5f9"/><rect x="585" y="270" width="45" height="45" fill="#f2f5f9"/><rect x="630" y="270" width="45" height="45" fill="#f2f5f9"/><rect x="360" y="315" width="45" height="45" fill="#e8edf4"/><rect x="405" y="315" width="45" height="45" fill="#f2f5f9"/><rect x="495" y="315" width="45" height="45" fill="#e8edf4"/><rect x="540" y="315" width="45" height="45" fill="#dae0ea"/><rect x="585" y="315" width="45" height="45" fill="#f2f5f9"/><rect x="675" y="315" width="45" height="45" fill="#f2f5f9"/><rect x="720" y="315" width="45" height="45" fill="#f2f5f9"/><rect x="360" y="360" width="45" height="45" fill="#e8edf4"/><rect x="495" y="360" width="45" height="45" fill="#e8edf4"/><rect x="540" y="360" width="45" height="45" fill="#f2f5f9"/><rect x="585" y="360" width="45" height="45" fill="#f2f5f9"/><rect x="630" y="360" width="45" height="45" fill="#f2f5f9"/><rect x="720" y="360" width="45" height="45" fill="#f2f5f9"/><rect y="405" width="45" height="45" fill="#f2f5f9"/><rect x="180" y="405" width="45" height="45" fill="#f2f5f9"/><rect x="360" y="405" width="45" height="45" fill="#f2f5f9"/><rect x="405" y="405" width="45" height="45" fill="#f2f5f9"/><rect x="450" y="405" width="45" height="45" fill="#e8edf4"/><rect x="495" y="405" width="45" height="45" fill="#e8edf4"/><rect x="540" y="405" width="45" height="45" fill="#f2f5f9"/><rect x="585" y="405" width="45" height="45" fill="#f2f5f9"/><rect x="630" y="405" width="45" height="45" fill="#f2f5f9"/><rect x="45" y="450" width="45" height="45" fill="#f2f5f9"/><rect x="90" y="450" width="45" height="45" fill="#f2f5f9"/><rect x="135" y="450" width="45" height="45" fill="#f2f5f9"/><rect x="360" y="450" width="45" height="45" fill="#f2f5f9"/><rect x="405" y="450" width="45" height="45" fill="#e8edf4"/><rect x="450" y="450" width="45" height="45" fill="#e8edf4"/><rect x="495" y="450" width="45" height="45" fill="#e8edf4"/><rect x="540" y="450" width="45" height="45" fill="#e8edf4"/><rect x="585" y="450" width="45" height="45" fill="#f2f5f9"/><rect x="630" y="450" width="45" height="45" fill="#f2f5f9"/><rect x="675" y="450" width="45" height="45" fill="#f2f5f9"/><rect x="720" y="450" width="45" height="45" fill="#f2f5f9"/><rect x="765" y="450" width="45" height="45" fill="#e8edf4"/><rect x="810" y="450" width="45" height="45" fill="#f2f5f9"/><rect x="90" y="495" width="45" height="45" fill="#e8edf4"/><rect x="135" y="495" width="45" height="45" fill="#dae0ea"/><rect x="180" y="495" width="45" height="45" fill="#f2f5f9"/><rect x="315" y="495" width="45" height="45" fill="#f2f5f9"/><rect x="360" y="495" width="45" height="45" fill="#f2f5f9"/><rect x="405" y="495" width="45" height="45" fill="#dae0ea"/><rect x="450" y="495" width="45" height="45" fill="#e8edf4"/><rect x="495" y="495" width="45" height="45" fill="#f2f5f9"/><rect x="540" y="495" width="45" height="45" fill="#f2f5f9"/><rect x="585" y="495" width="45" height="45" fill="#f2f5f9"/><rect x="630" y="495" width="45" height="45" fill="#f2f5f9"/><rect x="675" y="495" width="45" height="45" fill="#f2f5f9"/><rect x="720" y="495" width="45" height="45" fill="#f2f5f9"/><rect x="765" y="495" width="45" height="45" fill="#f2f5f9"/><rect x="90" y="540" width="45" height="45" fill="#f2f5f9"/><rect x="135" y="540" width="45" height="45" fill="#e8edf4"/><rect x="180" y="540" width="45" height="45" fill="#dae0ea"/><rect x="225" y="540" width="45" height="45" fill="#f2f5f9"/><rect x="315" y="540" width="45" height="45" fill="#f2f5f9"/><rect x="360" y="540" width="45" height="45" fill="#e8edf4"/><rect x="405" y="540" width="45" height="45" fill="#f2f5f9"/><rect x="450" y="540" width="45" height="45" fill="#f2f5f9"/><rect x="495" y="540" width="45" height="45" fill="#f2f5f9"/><rect x="540" y="540" width="45" height="45" fill="#f2f5f9"/><rect x="585" y="540" width="45" height="45" fill="#f2f5f9"/><rect x="360" y="585" width="45" height="45" fill="#f2f5f9"/><rect x="405" y="585" width="45" height="45" fill="#dae0ea"/><rect x="495" y="585" width="45" height="45" fill="#f2f5f9"/><rect x="540" y="585" width="45" height="45" fill="#f2f5f9"/><rect x="585" y="585" width="45" height="45" fill="#f2f5f9"/><rect x="405" y="630" width="45" height="45" fill="#f2f5f9"/><rect x="540" y="630" width="45" height="45" fill="#f2f5f9"/><rect x="585" y="630" width="45" height="45" fill="#f2f5f9"/><rect x="360" y="675" width="45" height="45" fill="#f2f5f9"/><rect x="540" y="675" width="45" height="45" fill="#f2f5f9"/><rect x="585" y="675" width="45" height="45" fill="#dae0ea"/><rect x="630" y="675" width="45" height="45" fill="#f2f5f9"/><rect x="315" y="720" width="45" height="45" fill="#f2f5f9"/><rect x="360" y="720" width="45" height="45" fill="#dae0ea"/><rect x="630" y="720" width="45" height="45" fill="#f2f5f9"/><rect x="675" y="720" width="45" height="45" fill="#f2f5f9"/><rect x="315" y="765" width="45" height="45" fill="#f2f5f9"/><rect x="360" y="765" width="45" height="45" fill="#e8edf4"/><circle cx="418" cy="484" r="8" fill="none" stroke="#666" stroke-opacity=".8" stroke-width="3px"></circle><circle cx="403" cy="452" r="8" fill="none" stroke="#666" stroke-opacity=".8" stroke-width="3px"></circle><circle cx="390" cy="420" r="8" fill="none" stroke="#666" stroke-opacity=".8" stroke-width="3px"></circle><circle cx="381" cy="390" r="8" fill="none" stroke="#666" stroke-opacity=".8" stroke-width="3px"></circle><circle cx="369" cy="358" r="8" fill="none" stroke="#666" stroke-opacity=".8" stroke-width="3px"></circle><circle cx="357" cy="329" r="8" fill="none" stroke="#666" stroke-opacity=".8" stroke-width="3px"></circle><circle cx="344" cy="297" r="8" fill="none" stroke="#666" stroke-opacity=".8" stroke-width="3px"></circle><circle cx="333" cy="260" r="8" fill="none" stroke="#666" stroke-opacity=".8" stroke-width="3px"></circle><circle cx="324" cy="227" r="8" fill="none" stroke="#666" stroke-opacity=".8" stroke-width="3px"></circle><circle cx="317" cy="197" r="8" fill="none" stroke="#666" stroke-opacity=".8" stroke-width="3px"></circle><circle cx="311" cy="169" r="8" fill="none" stroke="#666" stroke-opacity=".8" stroke-width="3px"></circle><circle cx="304" cy="148" r="8" fill="none" stroke="#666" stroke-opacity=".8" stroke-width="3px"></circle><circle cx="299" cy="128" r="8" fill="none" stroke="#666" stroke-opacity=".8" stroke-width="3px"></circle><circle cx="293" cy="113" r="8" fill="none" stroke="#666" stroke-opacity=".8" stroke-width="3px"></circle><circle cx="482" cy="495" r="8" fill="none" stroke="#666" stroke-opacity=".8" stroke-width="3px"></circle><circle cx="506" cy="471" r="8" fill="none" stroke="#666" stroke-opacity=".8" stroke-width="3px"></circle><circle cx="521" cy="413" r="8" fill="none" stroke="#666" stroke-opacity=".8" stroke-width="3px"></circle><circle cx="525" cy="385" r="8" fill="none" stroke="#666" stroke-opacity=".8" stroke-width="3px"></circle><circle cx="513" cy="333" r="8" fill="none" stroke="#666" stroke-opacity=".8" stroke-width="3px"></circle><circle cx="504" cy="304" r="8" fill="none" stroke="#666" stroke-opacity=".8" stroke-width="3px"></circle><circle cx="496" cy="282" r="8" fill="none" stroke="#666" stroke-opacity=".8" stroke-width="3px"></circle><circle cx="494" cy="258" r="8" fill="none" stroke="#666" stroke-opacity=".8" stroke-width="3px"></circle><circle cx="490" cy="243" r="8" fill="none" stroke="#666" stroke-opacity=".8" stroke-width="3px"></circle><circle cx="518" cy="444" r="8" fill="none" stroke="#666" stroke-opacity=".8" stroke-width="3px"></circle><circle cx="412" cy="524" r="8" fill="none" stroke="#666" stroke-opacity=".8" stroke-width="3px"></circle><circle cx="398" cy="546" r="8" fill="none" stroke="#666" stroke-opacity=".8" stroke-width="3px"></circle><circle cx="381" cy="567" r="8" fill="none" stroke="#666" stroke-opacity=".8" stroke-width="3px"></circle><circle cx="400" cy="598" r="8" fill="none" stroke="#666" stroke-opacity=".8" stroke-width="3px"></circle><circle cx="422" cy="640" r="8" fill="none" stroke="#666" stroke-opacity=".8" stroke-width="3px"></circle><circle cx="417" cy="671" r="8" fill="none" stroke="#666" stroke-opacity=".8" stroke-width="3px"></circle><circle cx="413" cy="696" r="8" fill="none" stroke="#666" stroke-opacity=".8" stroke-width="3px"></circle><circle cx="409" cy="716" r="8" fill="none" stroke="#666" stroke-opacity=".8" stroke-width="3px"></circle><circle cx="382" cy="740" r="8" fill="none" stroke="#666" stroke-opacity=".8" stroke-width="3px"></circle><circle cx="369" cy="749" r="8" fill="none" stroke="#666" stroke-opacity=".8" stroke-width="3px"></circle><circle cx="436" cy="537" r="8" fill="none" stroke="#666" stroke-opacity=".8" stroke-width="3px"></circle><circle cx="451" cy="567" r="8" fill="none" stroke="#666" stroke-opacity=".8" stroke-width="3px"></circle><circle cx="502" cy="578" r="8" fill="none" stroke="#666" stroke-opacity=".8" stroke-width="3px"></circle><circle cx="543" cy="568" r="8" fill="none" stroke="#666" stroke-opacity=".8" stroke-width="3px"></circle><circle cx="585" cy="556" r="8" fill="none" stroke="#666" stroke-opacity=".8" stroke-width="3px"></circle><circle cx="624" cy="544" r="8" fill="none" stroke="#666" stroke-opacity=".8" stroke-width="3px"></circle><circle cx="670" cy="516" r="8" fill="none" stroke="#666" stroke-opacity=".8" stroke-width="3px"></circle><circle cx="689" cy="504" r="8" fill="none" stroke="#666" stroke-opacity=".8" stroke-width="3px"></circle><circle cx="705" cy="489" r="8" fill="none" stroke="#666" stroke-opacity=".8" stroke-width="3px"></circle><circle cx="719" cy="473" r="8" fill="none" stroke="#666" stroke-opacity=".8" stroke-width="3px"></circle><circle cx="728" cy="460" r="8" fill="none" stroke="#666" stroke-opacity=".8" stroke-width="3px"></circle><circle cx="462" cy="482" r="8" fill="none" stroke="#666" stroke-opacity=".8" stroke-width="3px"></circle><circle cx="468" cy="454" r="8" fill="none" stroke="#666" stroke-opacity=".8" stroke-width="3px"></circle><circle cx="479" cy="429" r="8" fill="none" stroke="#666" stroke-opacity=".8" stroke-width="3px"></circle><circle cx="488" cy="406" r="8" fill="none" stroke="#666" stroke-opacity=".8" stroke-width="3px"></circle><circle cx="503" cy="381" r="8" fill="none" stroke="#666" stroke-opacity=".8" stroke-width="3px"></circle><circle cx="537" cy="354" r="8" fill="none" stroke="#666" stroke-opacity=".8" stroke-width="3px"></circle><circle cx="554" cy="353" r="8" fill="none" stroke="#666" stroke-opacity=".8" stroke-width="3px"></circle><circle cx="566" cy="342" r="8" fill="none" stroke="#666" stroke-opacity=".8" stroke-width="3px"></circle><circle cx="573" cy="330" r="8" fill="none" stroke="#666" stroke-opacity=".8" stroke-width="3px"></circle><circle cx="462" cy="550" r="8" fill="none" stroke="#666" stroke-opacity=".8" stroke-width="3px"></circle><circle cx="487" cy="599" r="8" fill="none" stroke="#666" stroke-opacity=".8" stroke-width="3px"></circle><circle cx="510" cy="617" r="8" fill="none" stroke="#666" stroke-opacity=".8" stroke-width="3px"></circle><circle cx="529" cy="638" r="8" fill="none" stroke="#666" stroke-opacity=".8" stroke-width="3px"></circle><circle cx="547" cy="658" r="8" fill="none" stroke="#666" stroke-opacity=".8" stroke-width="3px"></circle><circle cx="566" cy="671" r="8" fill="none" stroke="#666" stroke-opacity=".8" stroke-width="3px"></circle><circle cx="588" cy="684" r="8" fill="none" stroke="#666" stroke-opacity=".8" stroke-width="3px"></circle><circle cx="605" cy="693" r="8" fill="none" stroke="#666" stroke-opacity=".8" stroke-width="3px"></circle><circle cx="617" cy="703" r="8" fill="none" stroke="#666" stroke-opacity=".8" stroke-width="3px"></circle><circle cx="683" cy="538" r="8" fill="none" stroke="#666" stroke-opacity=".8" stroke-width="3px"></circle><circle cx="714" cy="541" r="8" fill="none" stroke="#666" stroke-opacity=".8" stroke-width="3px"></circle><circle cx="743" cy="543" r="8" fill="none" stroke="#666" stroke-opacity=".8" stroke-width="3px"></circle><circle cx="767" cy="543" r="8" fill="none" stroke="#666" stroke-opacity=".8" stroke-width="3px"></circle><circle cx="784" cy="541" r="8" fill="none" stroke="#666" stroke-opacity=".8" stroke-width="3px"></circle><circle cx="405" cy="753" r="8" fill="none" stroke="#666" stroke-opacity=".8" stroke-width="3px"></circle><circle cx="401" cy="767" r="8" fill="none" stroke="#666" stroke-opacity=".8" stroke-width="3px"></circle><circle cx="335" cy="583" r="8" fill="none" stroke="#666" stroke-opacity=".8" stroke-width="3px"></circle><circle cx="302" cy="581" r="8" fill="none" stroke="#666" stroke-opacity=".8" stroke-width="3px"></circle><circle cx="271" cy="577" r="8" fill="none" stroke="#666" stroke-opacity=".8" stroke-width="3px"></circle><circle cx="239" cy="572" r="8" fill="none" stroke="#666" stroke-width="3px"></circle><circle cx="183" cy="570" r="8" fill="none" stroke="#666" stroke-opacity=".8" stroke-width="3px"></circle><circle cx="164" cy="584" r="8" fill="none" stroke="#666" stroke-opacity=".8" stroke-width="3px"></circle><circle cx="147" cy="585" r="8" fill="none" stroke="#666" stroke-opacity=".8" stroke-width="3px"></circle><circle cx="186" cy="550" r="8" fill="none" stroke="#666" stroke-opacity=".8" stroke-width="3px"></circle><circle cx="167" cy="534" r="8" fill="none" stroke="#666" stroke-opacity=".8" stroke-width="3px"></circle><circle cx="151" cy="517" r="8" fill="none" stroke="#666" stroke-opacity=".8" stroke-width="3px"></circle><circle cx="151" cy="498" r="8" fill="none" stroke="#666" stroke-opacity=".8" stroke-width="3px"></circle><circle cx="139" cy="491" r="8" fill="none" stroke="#666" stroke-opacity=".8" stroke-width="3px"></circle><circle cx="430" cy="513" r="16" fill="#f8f8f8" stroke="#555" stroke-width="3px"></circle><circle cx="367" cy="586" r="16" fill="#f8f8f8" stroke="#555" stroke-width="3px"></circle><circle cx="432" cy="608" r="16" fill="#f8f8f8" stroke="#555" stroke-width="3px"></circle><circle cx="401" cy="734" r="16" fill="#f8f8f8" stroke="#555" stroke-width="3px"></circle><circle cx="657" cy="533" r="16" fill="#f8f8f8" stroke="#555" stroke-width="3px"></circle><circle cx="517" cy="360" r="16" fill="#f8f8f8" stroke="#555" stroke-width="3px"></circle><circle cx="460" cy="514" r="16" fill="#f8f8f8" stroke="#555" stroke-width="3px"></circle><circle cx="468" cy="583" r="16" fill="#f8f8f8" stroke="#555" stroke-width="3px"></circle><circle cx="207" cy="564" r="16" fill="#f8f8f8" stroke="#555" stroke-width="3px"></circle></svg>