<?xml version="1.0" encoding="UTF-8"?>
<svg width="216px" height="118px" viewBox="0 0 216 118" version="1.1" xmlns="http://www.w3.org/2000/svg" xmlns:xlink="http://www.w3.org/1999/xlink" style="background: #FFFFFF;">
    <title>Group</title>
    <g id="Page-1" stroke="none" stroke-width="1" fill="none" fill-rule="evenodd">
        <g id="Group" fill="#62686C">
            <path d="M216,0 L216,87 L0,87 L0,0 L216,0 Z M140.334,74.86 L137.1,74.86 C136.362667,74.86 135.793333,75.056 135.392,75.448 C135.0308,75.8008 134.83214,76.29346 134.79602,76.92598 L134.79,77.142 L134.79,79.396 C134.79,80.1333333 134.974333,80.698 135.343,81.09 C135.6748,81.4428 136.14835,81.63684 136.76365,81.67212 L136.974,81.678 L137.436,81.678 C137.725333,81.678 138.000667,81.6126667 138.262,81.482 C138.479778,81.3731111 138.642463,81.2220926 138.750056,81.0289444 L138.808,80.908 L138.864,80.908 L138.864,81.972 C138.864,82.2613333 138.801,82.469 138.675,82.595 C138.57,82.7 138.405046,82.76125 138.180139,82.77875 L138.038,82.784 L135.644,82.784 C135.476,82.784 135.38,82.856 135.356,83 L135.35,83.078 L135.35,84.044 C135.35,84.1466667 135.371,84.219 135.413,84.261 C135.4445,84.2925 135.495687,84.3121875 135.566562,84.3200625 L135.644,84.324 L138.332,84.324 C139.06,84.324 139.627,84.128 140.033,83.736 C140.3984,83.3832 140.59937,82.89432 140.63591,82.26936 L140.642,82.056 L140.642,75.154 C140.642,74.986 140.566571,74.89 140.415714,74.866 L140.334,74.86 Z M152.324,72.998 L151.134,72.998 C150.966,72.998 150.87,73.07 150.846,73.214 L150.84,73.292 L150.84,79.718 C150.84,80.4553333 151.040667,81.02 151.442,81.412 C151.8032,81.7648 152.30048,81.95884 152.93384,81.99412 L153.15,82 L154.69,82 C155.418,82 155.985,81.8016667 156.391,81.405 C156.7564,81.048 156.95737,80.55681 156.99391,79.93143 L157,79.718 L157,73.278 C157,73.118 156.924571,73.0265714 156.773714,73.0037143 L156.692,72.998 L155.516,72.998 C155.348,72.998 155.252,73.07 155.228,73.214 L155.222,73.292 L155.222,79.634 C155.222,79.9326667 155.159,80.145 155.033,80.271 C154.928,80.376 154.763046,80.43725 154.538139,80.45475 L154.396,80.46 L153.43,80.46 C153.140667,80.46 152.933,80.397 152.807,80.271 C152.702,80.166 152.64075,80.0010463 152.62325,79.7761389 L152.618,79.634 L152.618,73.292 C152.618,73.124 152.546,73.028 152.402,73.004 L152.324,72.998 Z M171.182,73.082 L170.006,73.082 C169.83,73.082 169.729429,73.154 169.704286,73.298 L169.698,73.376 L169.698,74.706 C169.698,74.7881333 169.665147,74.8374133 169.59944,74.85384 L169.544,74.86 L168.984,74.86 C168.816,74.86 168.72,74.932 168.696,75.076 L168.69,75.154 L168.69,76.12 C168.69,76.232 168.711,76.3066667 168.753,76.344 C168.7845,76.372 168.835688,76.3895 168.906563,76.3965 L168.984,76.4 L169.544,76.4 C169.626133,76.4 169.675413,76.4328533 169.69184,76.49856 L169.698,76.554 L169.698,79.732 C169.698,80.46 169.901,81.02 170.307,81.412 C170.6724,81.7648 171.17199,81.95884 171.80577,81.99412 L172.022,82 L172.876,82 C172.988,82 173.065,81.979 173.107,81.937 C173.1385,81.9055 173.158187,81.8569375 173.166062,81.7913125 L173.17,81.72 L173.17,80.754 C173.17,80.586 173.098,80.49 172.954,80.466 L172.876,80.46 L172.316,80.46 C172.017333,80.46 171.802667,80.397 171.672,80.271 C171.563111,80.166 171.499593,80.004287 171.481444,79.7858611 L171.476,79.648 L171.476,76.554 C171.476,76.4718667 171.51184,76.4225867 171.58352,76.40616 L171.644,76.4 L172.736,76.4 C172.848,76.4 172.925,76.379 172.967,76.337 C172.9985,76.3055 173.018187,76.2569375 173.026062,76.1913125 L173.03,76.12 L173.03,75.154 C173.03,74.986 172.958,74.89 172.814,74.866 L172.736,74.86 L171.644,74.86 C171.5544,74.86 171.50064,74.8271467 171.48272,74.76144 L171.476,74.706 L171.476,73.376 C171.476,73.208 171.404,73.112 171.26,73.088 L171.182,73.082 Z M167.486,74.86 L166.282,74.86 C166.122,74.86 166.030571,74.932 166.007714,75.076 L166.002,75.154 L166.002,81.706 C166.002,81.874 166.074,81.97 166.218,81.994 L166.296,82 L167.5,82 C167.602667,82 167.675,81.9813333 167.717,81.944 C167.7485,81.916 167.768187,81.864375 167.776062,81.789125 L167.78,81.706 L167.78,75.154 C167.78,74.986 167.708,74.89 167.564,74.866 L167.486,74.86 Z M160.094,74.86 L158.904,74.86 C158.736,74.86 158.64,74.932 158.616,75.076 L158.61,75.154 L158.61,81.706 C158.61,81.874 158.682,81.97 158.826,81.994 L158.904,82 L160.094,82 C160.262,82 160.358,81.928 160.382,81.784 L160.388,81.706 L160.388,77.464 C160.388,76.8019556 160.668498,76.4488652 161.229493,76.4047289 L161.354,76.4 L161.858,76.4 C162.156667,76.4 162.369,76.463 162.495,76.589 C162.6,76.694 162.66125,76.8589537 162.67875,77.0838611 L162.684,77.226 L162.684,81.706 C162.684,81.874 162.756,81.97 162.9,81.994 L162.978,82 L164.154,82 C164.33,82 164.430571,81.928 164.455714,81.784 L164.462,81.706 L164.462,77.142 C164.462,75.6868116 163.791658,74.9275829 162.450975,74.8643138 L162.264,74.86 L161.816,74.86 C161.165778,74.86 160.727306,75.07175 160.500583,75.49525 L160.444,75.616 L160.388,75.616 L160.388,75.154 C160.388,74.986 160.316,74.89 160.172,74.866 L160.094,74.86 Z M116.072,74.86 L113.734,74.86 C112.996667,74.86 112.455333,75.014 112.11,75.322 C111.764667,75.63 111.592,76.1106667 111.592,76.764 C111.592,77.2026667 111.704,77.562 111.928,77.842 C112.12,78.082 112.404571,78.3082857 112.781714,78.5208571 L112.978,78.626 L114.364,79.396 C114.698833,79.5756667 114.887177,79.7624792 114.929031,79.9564375 L114.938,80.04 L114.938,80.11 C114.938,80.362 114.75278,80.5006 114.38234,80.5258 L114.252,80.53 L111.914,80.53 C111.802,80.53 111.727333,80.551 111.69,80.593 C111.662,80.6245 111.6445,80.6730625 111.6375,80.7386875 L111.634,80.81 L111.634,81.706 C111.634,81.874 111.702571,81.97 111.839714,81.994 L111.914,82 L114.574,82 C116.039333,82 116.772,81.3746667 116.772,80.124 C116.772,79.676 116.674,79.3143333 116.478,79.039 C116.31,78.803 116.035714,78.5721429 115.655143,78.3464286 L115.456,78.234 L114.042,77.394 C113.685259,77.2031852 113.48707,77.0160576 113.447432,76.8326173 L113.44,76.764 L113.44,76.694 C113.44,76.484 113.62522,76.3685 113.99566,76.3475 L114.126,76.344 L116.072,76.344 C116.184,76.344 116.258667,76.323 116.296,76.281 C116.324,76.2495 116.3415,76.2009375 116.3485,76.1353125 L116.352,76.064 L116.352,75.154 C116.352,74.986 116.283429,74.89 116.146286,74.866 L116.072,74.86 Z M95.492,74.86 L94.246,74.86 C93.5086667,74.86 92.9393333,75.056 92.538,75.448 C92.1768,75.8008 91.97814,76.29346 91.94202,76.92598 L91.936,77.142 L91.936,79.718 C91.936,80.4553333 92.1366667,81.02 92.538,81.412 C92.8992,81.7648 93.39648,81.95884 94.02984,81.99412 L94.246,82 L95.492,82 C96.22,82 96.787,81.8016667 97.193,81.405 C97.5584,81.048 97.75937,80.55681 97.79591,79.93143 L97.802,79.718 L97.802,77.142 C97.802,76.414 97.599,75.8516667 97.193,75.455 C96.8276,75.098 96.33179,74.90165 95.70557,74.86595 L95.492,74.86 Z M129.078,74.86 L127.888,74.86 C127.72,74.86 127.624,74.932 127.6,75.076 L127.594,75.154 L127.594,81.706 C127.594,81.874 127.666,81.97 127.81,81.994 L127.888,82 L129.078,82 C129.246,82 129.342,81.928 129.366,81.784 L129.372,81.706 L129.372,77.464 C129.372,76.8019556 129.652498,76.4488652 130.213493,76.4047289 L130.338,76.4 L130.842,76.4 C131.140667,76.4 131.353,76.463 131.479,76.589 C131.584,76.694 131.64525,76.8589537 131.66275,77.0838611 L131.668,77.226 L131.668,81.706 C131.668,81.874 131.74,81.97 131.884,81.994 L131.962,82 L133.138,82 C133.314,82 133.414571,81.928 133.439714,81.784 L133.446,81.706 L133.446,77.142 C133.446,75.6868116 132.775658,74.9275829 131.434975,74.8643138 L131.248,74.86 L130.8,74.86 C130.149778,74.86 129.711306,75.07175 129.484583,75.49525 L129.428,75.616 L129.372,75.616 L129.372,75.154 C129.372,74.986 129.3,74.89 129.156,74.866 L129.078,74.86 Z M88.674,74.86 L87.484,74.86 C87.316,74.86 87.22,74.932 87.196,75.076 L87.19,75.154 L87.19,81.706 C87.19,81.874 87.262,81.97 87.406,81.994 L87.484,82 L88.674,82 C88.842,82 88.938,81.928 88.962,81.784 L88.968,81.706 L88.968,77.492 C88.968,76.8125333 89.2484978,76.4501511 89.8094933,76.4048533 L89.934,76.4 L90.9,76.4 C91.0026667,76.4093333 91.075,76.393 91.117,76.351 C91.1485,76.3195 91.1681875,76.2683125 91.1760625,76.1974375 L91.18,76.12 L91.18,75.154 C91.18,74.986 91.1114286,74.89 90.9742857,74.866 L90.9,74.86 L90.396,74.86 C90.1066667,74.86 89.8313333,74.9253333 89.57,75.056 C89.3522222,75.1648889 89.189537,75.3159074 89.0819444,75.5090556 L89.024,75.63 L88.968,75.63 L88.968,75.154 C88.968,74.986 88.896,74.89 88.752,74.866 L88.674,74.86 Z M11.564,72.998 L10.08,72.998 C9.34266667,72.998 8.77333333,73.194 8.372,73.586 C8.0108,73.9388 7.81214,74.43146 7.77602,75.06398 L7.77,75.28 L7.77,79.718 C7.77,80.4553333 7.97066667,81.02 8.372,81.412 C8.7332,81.7648 9.23048,81.95884 9.86384,81.99412 L10.08,82 L11.564,82 C12.292,82 12.8566667,81.8016667 13.258,81.405 C13.6192,81.048 13.81786,80.55681 13.85398,79.93143 L13.86,79.718 L13.86,77.38 C13.86,77.1921667 13.7778229,77.0865104 13.6134687,77.0630312 L13.538,77.058 L11.088,77.058 C10.92,77.058 10.824,77.13 10.8,77.274 L10.794,77.352 L10.794,78.304 C10.794,78.472 10.866,78.568 11.01,78.592 L11.088,78.598 L11.928,78.598 C12.0101333,78.598 12.0594133,78.6308533 12.07584,78.69656 L12.082,78.752 L12.082,79.634 C12.082,79.9326667 12.0213333,80.145 11.9,80.271 C11.7988889,80.376 11.6362037,80.43725 11.4119444,80.45475 L11.27,80.46 L10.36,80.46 C10.0706667,80.46 9.863,80.397 9.737,80.271 C9.632,80.166 9.57075,80.0010463 9.55325,79.7761389 L9.548,79.634 L9.548,75.364 C9.548,75.0653333 9.611,74.853 9.737,74.727 C9.842,74.622 10.003713,74.56075 10.2221389,74.54325 L10.36,74.538 L11.27,74.538 C11.5686667,74.538 11.7786667,74.601 11.9,74.727 C12.0011111,74.832 12.0600926,74.9969537 12.0769444,75.2218611 L12.082,75.364 L12.082,75.7 C12.082,75.876 12.154,75.9765714 12.298,76.0017143 L12.376,76.008 L13.566,76.008 C13.734,76.008 13.83,75.9325714 13.854,75.7817143 L13.86,75.7 L13.86,75.28 C13.86,74.552 13.6593333,73.9896667 13.258,73.593 C12.8968,73.236 12.4033,73.03965 11.7775,73.00395 L11.564,72.998 Z M18.816,74.86 L17.57,74.86 C16.8326667,74.86 16.2633333,75.056 15.862,75.448 C15.5008,75.8008 15.30214,76.29346 15.26602,76.92598 L15.26,77.142 L15.26,79.718 C15.26,80.4553333 15.4606667,81.02 15.862,81.412 C16.2232,81.7648 16.72048,81.95884 17.35384,81.99412 L17.57,82 L18.816,82 C19.544,82 20.111,81.8016667 20.517,81.405 C20.8824,81.048 21.08337,80.55681 21.11991,79.93143 L21.126,79.718 L21.126,77.142 C21.126,76.414 20.923,75.8516667 20.517,75.455 C20.1516,75.098 19.65579,74.90165 19.02957,74.86595 L18.816,74.86 Z M125.69,74.86 L124.486,74.86 C124.326,74.86 124.234571,74.932 124.211714,75.076 L124.206,75.154 L124.206,81.706 C124.206,81.874 124.278,81.97 124.422,81.994 L124.5,82 L125.704,82 C125.806667,82 125.879,81.9813333 125.921,81.944 C125.9525,81.916 125.972187,81.864375 125.980063,81.789125 L125.984,81.706 L125.984,75.154 C125.984,74.986 125.912,74.89 125.768,74.866 L125.69,74.86 Z M122.204,74.86 L119.866,74.86 C119.128667,74.86 118.587333,75.014 118.242,75.322 C117.896667,75.63 117.724,76.1106667 117.724,76.764 C117.724,77.2026667 117.836,77.562 118.06,77.842 C118.252,78.082 118.536571,78.3082857 118.913714,78.5208571 L119.11,78.626 L120.496,79.396 C120.830833,79.5756667 121.019177,79.7624792 121.061031,79.9564375 L121.07,80.04 L121.07,80.11 C121.07,80.362 120.88478,80.5006 120.51434,80.5258 L120.384,80.53 L118.046,80.53 C117.934,80.53 117.859333,80.551 117.822,80.593 C117.794,80.6245 117.7765,80.6730625 117.7695,80.7386875 L117.766,80.81 L117.766,81.706 C117.766,81.874 117.834571,81.97 117.971714,81.994 L118.046,82 L120.706,82 C122.171333,82 122.904,81.3746667 122.904,80.124 C122.904,79.676 122.806,79.3143333 122.61,79.039 C122.442,78.803 122.167714,78.5721429 121.787143,78.3464286 L121.588,78.234 L120.174,77.394 C119.817259,77.2031852 119.61907,77.0160576 119.579432,76.8326173 L119.572,76.764 L119.572,76.694 C119.572,76.484 119.75722,76.3685 120.12766,76.3475 L120.258,76.344 L122.204,76.344 C122.316,76.344 122.390667,76.323 122.428,76.281 C122.456,76.2495 122.4735,76.2009375 122.4805,76.1353125 L122.484,76.064 L122.484,75.154 C122.484,74.986 122.415429,74.89 122.278286,74.866 L122.204,74.86 Z M103.458,74.86 L101.372,74.86 C100.634667,74.86 100.065333,75.056 99.664,75.448 C99.3028,75.8008 99.10414,76.29346 99.06802,76.92598 L99.062,77.142 L99.062,79.718 C99.062,80.4553333 99.2626667,81.02 99.664,81.412 C100.0252,81.7648 100.52248,81.95884 101.15584,81.99412 L101.372,82 L103.458,82 C103.57,82 103.647,81.979 103.689,81.937 C103.7205,81.9055 103.740187,81.8569375 103.748062,81.7913125 L103.752,81.72 L103.752,80.754 C103.752,80.586 103.68,80.49 103.536,80.466 L103.458,80.46 L101.652,80.46 C101.362667,80.46 101.155,80.397 101.029,80.271 C100.924,80.166 100.86275,80.0010463 100.84525,79.7761389 L100.84,79.634 L100.84,77.226 C100.84,76.9273333 100.903,76.715 101.029,76.589 C101.134,76.484 101.295713,76.42275 101.514139,76.40525 L101.652,76.4 L103.458,76.4 C103.57,76.4 103.647,76.379 103.689,76.337 C103.7205,76.3055 103.740187,76.2569375 103.748062,76.1913125 L103.752,76.12 L103.752,75.154 C103.752,74.986 103.68,74.89 103.536,74.866 L103.458,74.86 Z M23.45,74.86 L22.218,74.86 C22.0465,74.86 21.9714687,74.9350312 21.9929062,75.0850937 L22.008,75.154 L23.758,81.692 C23.806,81.868 23.9054286,81.9685714 24.0562857,81.9937143 L24.136,82 L25.914,82 C26.098,82 26.2168571,81.9245714 26.2705714,81.7737143 L26.292,81.692 L28.056,75.154 C28.105,74.9825 28.0575312,74.8860312 27.9135937,74.8645937 L27.846,74.86 L26.614,74.86 C26.446,74.86 26.3362857,74.932 26.2848571,75.076 L26.264,75.154 L25.088,80.418 L24.99,80.418 L23.786,75.154 C23.754,74.986 23.6671429,74.89 23.5254286,74.866 L23.45,74.86 Z M32.354,74.86 L31.248,74.86 C30.5106667,74.86 29.9413333,75.056 29.54,75.448 C29.1788,75.8008 28.98014,76.29346 28.94402,76.92598 L28.938,77.142 L28.938,79.718 C28.938,80.4553333 29.1386667,81.02 29.54,81.412 C29.9012,81.7648 30.39848,81.95884 31.03184,81.99412 L31.248,82 L34.342,82 C34.454,82 34.531,81.979 34.573,81.937 C34.6045,81.9055 34.6241875,81.8569375 34.6320625,81.7913125 L34.636,81.72 L34.636,80.796 C34.636,80.62 34.564,80.5194286 34.42,80.4942857 L34.342,80.488 L31.514,80.488 C31.2153333,80.488 31.003,80.425 30.877,80.299 C30.772,80.194 30.71075,80.032287 30.69325,79.8138611 L30.688,79.676 L30.688,79.368 C30.688,79.2858667 30.72384,79.2365867 30.79552,79.22016 L30.856,79.214 L34.37,79.214 C34.538,79.214 34.634,79.142 34.658,78.998 L34.664,78.92 L34.664,77.142 C34.664,76.4046667 34.4633333,75.84 34.062,75.448 C33.7008,75.0952 33.20352,74.90116 32.57016,74.86588 L32.354,74.86 Z M108.232,74.86 L107.126,74.86 C106.388667,74.86 105.819333,75.056 105.418,75.448 C105.0568,75.8008 104.85814,76.29346 104.82202,76.92598 L104.816,77.142 L104.816,79.718 C104.816,80.4553333 105.016667,81.02 105.418,81.412 C105.7792,81.7648 106.27648,81.95884 106.90984,81.99412 L107.126,82 L110.22,82 C110.332,82 110.409,81.979 110.451,81.937 C110.4825,81.9055 110.502187,81.8569375 110.510063,81.7913125 L110.514,81.72 L110.514,80.796 C110.514,80.62 110.442,80.5194286 110.298,80.4942857 L110.22,80.488 L107.392,80.488 C107.093333,80.488 106.881,80.425 106.755,80.299 C106.65,80.194 106.58875,80.032287 106.57125,79.8138611 L106.566,79.676 L106.566,79.368 C106.566,79.2858667 106.60184,79.2365867 106.67352,79.22016 L106.734,79.214 L110.248,79.214 C110.416,79.214 110.512,79.142 110.536,78.998 L110.542,78.92 L110.542,77.142 C110.542,76.4046667 110.341333,75.84 109.94,75.448 C109.5788,75.0952 109.08152,74.90116 108.44816,74.86588 L108.232,74.86 Z M83.62,72.998 L80.204,72.998 C80.036,72.998 79.94,73.07 79.916,73.214 L79.91,73.292 L79.91,81.706 C79.91,81.874 79.982,81.97 80.126,81.994 L80.204,82 L81.394,82 C81.562,82 81.658,81.928 81.682,81.784 L81.688,81.706 L81.688,79.06 C81.688,78.9778667 81.72384,78.9285867 81.79552,78.91216 L81.856,78.906 L83.62,78.906 C84.348,78.906 84.9126667,78.7076667 85.314,78.311 C85.6752,77.954 85.87386,77.46281 85.90998,76.83743 L85.916,76.624 L85.916,75.28 C85.916,74.552 85.7153333,73.9896667 85.314,73.593 C84.9528,73.236 84.4593,73.03965 83.8335,73.00395 L83.62,72.998 Z M18.55,76.386 C18.8486667,76.386 19.061,76.4466667 19.187,76.568 C19.292,76.6691111 19.35325,76.8317963 19.37075,77.0560556 L19.376,77.198 L19.376,79.662 C19.376,79.9606667 19.313,80.1706667 19.187,80.292 C19.061,80.4133333 18.8486667,80.474 18.55,80.474 L17.836,80.474 C17.5373333,80.474 17.3273333,80.4133333 17.206,80.292 C17.1048889,80.1908889 17.0459074,80.0282037 17.0290556,79.8039444 L17.024,79.662 L17.024,77.198 C17.024,76.8993333 17.0846667,76.6893333 17.206,76.568 C17.3071111,76.4668889 17.4697963,76.4079074 17.6940556,76.3910556 L17.836,76.386 L18.55,76.386 Z M95.226,76.386 C95.5246667,76.386 95.737,76.4466667 95.863,76.568 C95.968,76.6691111 96.02925,76.8317963 96.04675,77.0560556 L96.052,77.198 L96.052,79.662 C96.052,79.9606667 95.989,80.1706667 95.863,80.292 C95.737,80.4133333 95.5246667,80.474 95.226,80.474 L94.512,80.474 C94.2133333,80.474 94.0033333,80.4133333 93.882,80.292 C93.7808889,80.1908889 93.7219074,80.0282037 93.7050556,79.8039444 L93.7,79.662 L93.7,77.198 C93.7,76.8993333 93.7606667,76.6893333 93.882,76.568 C93.9831111,76.4668889 94.1457963,76.4079074 94.3700556,76.3910556 L94.512,76.386 L95.226,76.386 Z M138.696,76.4 C138.7856,76.4 138.83936,76.4328533 138.85728,76.49856 L138.864,76.554 L138.864,79.074 C138.864,79.774 138.542,80.124 137.898,80.124 L137.38,80.124 C137.081333,80.124 136.871333,80.0633333 136.75,79.942 C136.648889,79.8408889 136.589907,79.6782037 136.573056,79.4539444 L136.568,79.312 L136.568,77.226 C136.568,76.9273333 136.628667,76.715 136.75,76.589 C136.851111,76.484 137.013796,76.42275 137.238056,76.40525 L137.38,76.4 L138.696,76.4 Z M107.98,76.386 C108.278667,76.386 108.488667,76.4466667 108.61,76.568 C108.711111,76.6691111 108.770093,76.8317963 108.786944,77.0560556 L108.792,77.198 L108.792,77.87 C108.792,77.9726667 108.740667,78.024 108.638,78.024 L106.734,78.024 C106.651867,78.024 106.602587,77.9911467 106.58616,77.92544 L106.58,77.87 L106.58,77.198 C106.58,76.8993333 106.640667,76.6893333 106.762,76.568 C106.863111,76.4668889 107.025796,76.4079074 107.250056,76.3910556 L107.392,76.386 L107.98,76.386 Z M32.102,76.386 C32.4006667,76.386 32.6106667,76.4466667 32.732,76.568 C32.8331111,76.6691111 32.8920926,76.8317963 32.9089444,77.0560556 L32.914,77.198 L32.914,77.87 C32.914,77.9726667 32.8626667,78.024 32.76,78.024 L30.856,78.024 C30.7738667,78.024 30.7245867,77.9911467 30.70816,77.92544 L30.702,77.87 L30.702,77.198 C30.702,76.8993333 30.7626667,76.6893333 30.884,76.568 C30.9851111,76.4668889 31.1477963,76.4079074 31.3720556,76.3910556 L31.514,76.386 L32.102,76.386 Z M83.326,74.538 C83.6246667,74.538 83.8346667,74.601 83.956,74.727 C84.0571111,74.832 84.1160926,74.9969537 84.1329444,75.2218611 L84.138,75.364 L84.138,76.54 C84.138,76.8293333 84.0773333,77.037 83.956,77.163 C83.8346667,77.289 83.6246667,77.352 83.326,77.352 L81.842,77.352 C81.7598667,77.352 81.7105867,77.3191467 81.69416,77.25344 L81.688,77.198 L81.688,74.692 C81.688,74.6098667 81.7208533,74.5605867 81.78656,74.54416 L81.842,74.538 L83.326,74.538 Z M125.704,72.158 L124.486,72.158 C124.326,72.158 124.234571,72.2265714 124.211714,72.3637143 L124.206,72.438 L124.206,73.656 C124.206,73.816 124.274571,73.9074286 124.411714,73.9302857 L124.486,73.936 L125.704,73.936 C125.864,73.936 125.955429,73.8674286 125.978286,73.7302857 L125.984,73.656 L125.984,72.424 C125.984,72.272 125.915429,72.1851429 125.778286,72.1634286 L125.704,72.158 Z M167.5,72.158 L166.282,72.158 C166.122,72.158 166.030571,72.2265714 166.007714,72.3637143 L166.002,72.438 L166.002,73.656 C166.002,73.816 166.070571,73.9074286 166.207714,73.9302857 L166.282,73.936 L167.5,73.936 C167.66,73.936 167.751429,73.8674286 167.774286,73.7302857 L167.78,73.656 L167.78,72.424 C167.78,72.272 167.711429,72.1851429 167.574286,72.1634286 L167.5,72.158 Z M169.9,7.8 L150.6,7.8 L150.6,62.1 C150.6,67.2672956 153.1349,69.8996915 158.204699,69.9971876 L158.5,70 L200.6,70 C205.767296,70 208.399691,67.4651003 208.497188,62.3953008 L208.5,62.1 L208.5,7.8 L189.2,7.8 L189.2,61 C189.2,62.3333333 189,63.1833333 188.6,63.55 C188.228571,63.8904762 187.483503,64.0728741 186.364796,64.0971939 L186.1,64.1 L173,64.1 C171.666667,64.1 170.816667,63.9166667 170.45,63.55 C170.107778,63.2077778 169.925259,62.4445185 169.902444,61.2602222 L169.9,61 L169.9,7.8 Z M129.8,7.8 L79.5,7.8 L79.5,70 L98.8,70 L98.8,49.7 L129.8,49.7 C134.967296,49.7 137.599691,47.1651003 137.697188,42.0953008 L137.7,41.8 L137.7,15.7 C137.7,10.5327044 135.1651,7.90030853 130.095301,7.80281239 L129.8,7.8 Z M56,7.8 L14.7,7.8 C9.5327044,7.8 6.90030853,10.3348997 6.80281239,15.4046992 L6.8,15.7 L6.8,62.1 C6.8,67.2672956 9.33489973,69.8996915 14.4046992,69.9971876 L14.7,70 L56,70 C61.1672956,70 63.7996915,67.4651003 63.8971876,62.3953008 L63.9,62.1 L63.9,38 L34.4,38 L34.4,43.9 L44.6,43.9 L44.6,61 C44.6,62.3333333 44.4,63.1833333 44,63.55 C43.6285714,63.8904762 42.8835034,64.0728741 41.7647959,64.0971939 L41.5,64.1 L29.2,64.1 C27.8666667,64.1 27.0166667,63.9166667 26.65,63.55 C26.3077778,63.2077778 26.1252593,62.4445185 26.1024444,61.2602222 L26.1,61 L26.1,16.8 C26.1,15.4666667 26.2833333,14.6166667 26.65,14.25 C26.9922222,13.9077778 27.7554815,13.7252593 28.9397778,13.7024444 L29.2,13.7 L41.5,13.7 C42.7666667,13.7 43.6,13.8833333 44,14.25 C44.3733333,14.5922222 44.5724444,15.3554815 44.5973333,16.5397778 L44.6,16.8 L44.6,28.2 L63.9,28.2 L63.9,15.7 C63.9,10.5327044 61.3651003,7.90030853 56.2953008,7.80281239 L56,7.8 Z M115.3,13.7 C116.566667,13.7 117.4,13.8833333 117.8,14.25 C118.173333,14.5922222 118.372444,15.3554815 118.397333,16.5397778 L118.4,16.8 L118.4,40.7 C118.4,41.9666667 118.2,42.8 117.8,43.2 C117.4,43.6 116.566667,43.8 115.3,43.8 L98.8,43.8 L98.8,13.7 L115.3,13.7 Z" id="Combined-Shape"></path>
            <path d="M16.988,93.2 C19.050677,93.2 20.8469924,93.5399966 22.377,94.22 C23.9070077,94.9000034 25.0799959,95.8746603 25.896,97.144 C26.7120041,98.4133397 27.12,99.9206579 27.12,101.666 C27.12,103.388675 26.7120041,104.890327 25.896,106.171 C25.0799959,107.451673 23.9070077,108.431997 22.377,109.112 C20.8469924,109.792003 19.050677,110.132 16.988,110.132 L11.616,110.132 L11.616,117 L7.196,117 L7.196,93.2 L16.988,93.2 Z M16.784,106.392 C18.7106763,106.392 20.1726617,105.984004 21.17,105.168 C22.1673383,104.351996 22.666,103.184674 22.666,101.666 C22.666,100.147326 22.1673383,98.9800041 21.17,98.164 C20.1726617,97.3479959 18.7106763,96.94 16.784,96.94 L11.616,96.94 L11.616,106.392 L16.784,106.392 Z M45.798,117.34 C43.3726545,117.34 41.185343,116.813005 39.236,115.759 C37.2866569,114.704995 35.7566722,113.243009 34.646,111.373 C33.5353277,109.502991 32.98,107.412012 32.98,105.1 C32.98,102.787988 33.5353277,100.697009 34.646,98.827 C35.7566722,96.9569907 37.2866569,95.4950053 39.236,94.441 C41.185343,93.3869947 43.3726545,92.86 45.798,92.86 C48.2233454,92.86 50.4106569,93.3869947 52.36,94.441 C54.309343,95.4950053 55.8393277,96.951324 56.95,98.81 C58.0606722,100.668676 58.616,102.765322 58.616,105.1 C58.616,107.434678 58.0606722,109.531324 56.95,111.39 C55.8393277,113.248676 54.309343,114.704995 52.36,115.759 C50.4106569,116.813005 48.2233454,117.34 45.798,117.34 Z M45.798,113.464 C47.3846746,113.464 48.8126603,113.107004 50.082,112.393 C51.3513396,111.678996 52.348663,110.681673 53.074,109.401 C53.7993369,108.120327 54.162,106.686675 54.162,105.1 C54.162,103.513325 53.7993369,102.079673 53.074,100.799 C52.348663,99.5183269 51.3513396,98.5210036 50.082,97.807 C48.8126603,97.0929964 47.3846746,96.736 45.798,96.736 C44.2113254,96.736 42.7833396,97.0929964 41.514,97.807 C40.2446603,98.5210036 39.2473369,99.5183269 38.522,100.799 C37.796663,102.079673 37.434,103.513325 37.434,105.1 C37.434,106.686675 37.796663,108.120327 38.522,109.401 C39.2473369,110.681673 40.2446603,111.678996 41.514,112.393 C42.7833396,113.107004 44.2113254,113.464 45.798,113.464 Z M100.142,93.2 L92.2539999,117 L87.5619999,117 L81.6799999,99.388 L75.6959999,117 L70.9699999,117 L63.0819999,93.2 L67.6719999,93.2 L73.5879999,111.288 L79.7419999,93.2 L83.8219999,93.2 L89.8399999,111.39 L95.9259999,93.2 L100.142,93.2 Z M124.396,113.294 L124.396,117 L106.546,117 L106.546,93.2 L123.92,93.2 L123.92,96.906 L110.966,96.906 L110.966,103.094 L122.458,103.094 L122.458,106.732 L110.966,106.732 L110.966,113.294 L124.396,113.294 Z M147.698,117 L142.836,110.03 C142.631999,110.052667 142.326002,110.064 141.918,110.064 L136.546,110.064 L136.546,117 L132.126,117 L132.126,93.2 L141.918,93.2 C143.980677,93.2 145.776992,93.5399966 147.307,94.22 C148.837007,94.9000034 150.009996,95.8746603 150.826,97.144 C151.642004,98.4133397 152.05,99.9206579 152.05,101.666 C152.05,103.456676 151.613671,104.997994 150.741,106.29 C149.868329,107.582006 148.616008,108.54533 146.984,109.18 L152.458,117 L147.698,117 Z M147.596,101.666 C147.596,100.147326 147.097338,98.9800041 146.1,98.164 C145.102661,97.3479959 143.640676,96.94 141.714,96.94 L136.546,96.94 L136.546,106.426 L141.714,106.426 C143.640676,106.426 145.102661,106.012337 146.1,105.185 C147.097338,104.357663 147.596,103.184674 147.596,101.666 Z M177.63,113.294 L177.63,117 L159.78,117 L159.78,93.2 L177.154,93.2 L177.154,96.906 L164.2,96.906 L164.2,103.094 L175.692,103.094 L175.692,106.732 L164.2,106.732 L164.2,113.294 L177.63,113.294 Z M185.36,93.2 L195.764,93.2 C198.302679,93.2 200.55799,93.6929951 202.53,94.679 C204.50201,95.6650049 206.031994,97.058991 207.12,98.861 C208.208005,100.663009 208.752,102.742655 208.752,105.1 C208.752,107.457345 208.208005,109.536991 207.12,111.339 C206.031994,113.141009 204.50201,114.534995 202.53,115.521 C200.55799,116.507005 198.302679,117 195.764,117 L185.36,117 L185.36,93.2 Z M195.56,113.26 C197.305342,113.26 198.840993,112.92567 200.167,112.257 C201.493006,111.58833 202.512996,110.63634 203.227,109.401 C203.941003,108.16566 204.298,106.732008 204.298,105.1 C204.298,103.467992 203.941003,102.03434 203.227,100.799 C202.512996,99.5636605 201.493006,98.61167 200.167,97.943 C198.840993,97.27433 197.305342,96.94 195.56,96.94 L189.78,96.94 L189.78,113.26 L195.56,113.26 Z" id="POWERED" fill-rule="nonzero"></path>
        </g>
    </g>
</svg>